<mxfile host="app.diagrams.net" modified="2024-02-27T19:18:14.937Z" agent="Mozilla/5.0 (Windows NT 10.0; Win64; x64) AppleWebKit/537.36 (KHTML, like Gecko) Chrome/121.0.0.0 Safari/537.36" etag="_jLOUMoDASBChAVMxA_J" version="23.1.7" type="device">
  <diagram name="PÃ¡gina-1" id="maPG1mJHxgEQZBKIBMnz">
    <mxGraphModel dx="1750" dy="942" grid="1" gridSize="10" guides="1" tooltips="1" connect="1" arrows="1" fold="1" page="1" pageScale="1" pageWidth="827" pageHeight="1169" math="0" shadow="0">
      <root>
        <mxCell id="0" />
        <mxCell id="1" parent="0" />
        <mxCell id="AvqMwJsmH2acJm9wW8Cv-5" value="" style="sketch=0;pointerEvents=1;shadow=0;dashed=0;html=1;strokeColor=none;fillColor=#505050;labelPosition=center;verticalLabelPosition=bottom;verticalAlign=top;outlineConnect=0;align=center;shape=mxgraph.office.devices.workstation_pc;" vertex="1" parent="1">
          <mxGeometry x="170" y="701" width="53" height="60" as="geometry" />
        </mxCell>
        <mxCell id="AvqMwJsmH2acJm9wW8Cv-7" value="" style="sketch=0;pointerEvents=1;shadow=0;dashed=0;html=1;strokeColor=none;fillColor=#505050;labelPosition=center;verticalLabelPosition=bottom;verticalAlign=top;outlineConnect=0;align=center;shape=mxgraph.office.devices.workstation_pc;" vertex="1" parent="1">
          <mxGeometry x="287" y="701" width="53" height="59" as="geometry" />
        </mxCell>
        <mxCell id="AvqMwJsmH2acJm9wW8Cv-8" value="" style="sketch=0;pointerEvents=1;shadow=0;dashed=0;html=1;strokeColor=none;fillColor=#505050;labelPosition=center;verticalLabelPosition=bottom;verticalAlign=top;outlineConnect=0;align=center;shape=mxgraph.office.devices.workstation_pc;" vertex="1" parent="1">
          <mxGeometry x="431" y="700" width="53" height="59" as="geometry" />
        </mxCell>
        <mxCell id="AvqMwJsmH2acJm9wW8Cv-9" value="" style="sketch=0;pointerEvents=1;shadow=0;dashed=0;html=1;strokeColor=none;fillColor=#505050;labelPosition=center;verticalLabelPosition=bottom;verticalAlign=top;outlineConnect=0;align=center;shape=mxgraph.office.devices.workstation_pc;" vertex="1" parent="1">
          <mxGeometry x="530" y="700" width="53" height="59" as="geometry" />
        </mxCell>
        <mxCell id="AvqMwJsmH2acJm9wW8Cv-23" value="" style="fontColor=#0066CC;verticalAlign=top;verticalLabelPosition=bottom;labelPosition=center;align=center;html=1;outlineConnect=0;fillColor=#CCCCCC;strokeColor=#6881B3;gradientColor=none;gradientDirection=north;strokeWidth=2;shape=mxgraph.networks.printer;" vertex="1" parent="1">
          <mxGeometry x="140" y="400" width="70" height="70" as="geometry" />
        </mxCell>
        <mxCell id="AvqMwJsmH2acJm9wW8Cv-24" value="" style="fontColor=#0066CC;verticalAlign=top;verticalLabelPosition=bottom;labelPosition=center;align=center;html=1;outlineConnect=0;fillColor=#CCCCCC;strokeColor=#6881B3;gradientColor=none;gradientDirection=north;strokeWidth=2;shape=mxgraph.networks.printer;" vertex="1" parent="1">
          <mxGeometry x="30" y="400" width="70" height="70" as="geometry" />
        </mxCell>
        <mxCell id="AvqMwJsmH2acJm9wW8Cv-25" value="" style="fontColor=#0066CC;verticalAlign=top;verticalLabelPosition=bottom;labelPosition=center;align=center;html=1;outlineConnect=0;fillColor=#CCCCCC;strokeColor=#6881B3;gradientColor=none;gradientDirection=north;strokeWidth=2;shape=mxgraph.networks.printer;" vertex="1" parent="1">
          <mxGeometry x="270" y="400" width="70" height="70" as="geometry" />
        </mxCell>
        <mxCell id="AvqMwJsmH2acJm9wW8Cv-31" style="edgeStyle=orthogonalEdgeStyle;rounded=0;orthogonalLoop=1;jettySize=auto;html=1;exitX=1;exitY=0.25;exitDx=0;exitDy=0;" edge="1" parent="1" source="AvqMwJsmH2acJm9wW8Cv-26">
          <mxGeometry relative="1" as="geometry">
            <mxPoint x="442" y="500" as="targetPoint" />
          </mxGeometry>
        </mxCell>
        <mxCell id="AvqMwJsmH2acJm9wW8Cv-32" style="edgeStyle=orthogonalEdgeStyle;rounded=0;orthogonalLoop=1;jettySize=auto;html=1;exitX=0;exitY=0.5;exitDx=0;exitDy=0;" edge="1" parent="1" source="AvqMwJsmH2acJm9wW8Cv-26" target="AvqMwJsmH2acJm9wW8Cv-24">
          <mxGeometry relative="1" as="geometry" />
        </mxCell>
        <mxCell id="AvqMwJsmH2acJm9wW8Cv-34" style="edgeStyle=orthogonalEdgeStyle;rounded=0;orthogonalLoop=1;jettySize=auto;html=1;exitX=0;exitY=0.5;exitDx=0;exitDy=0;" edge="1" parent="1" source="AvqMwJsmH2acJm9wW8Cv-26" target="AvqMwJsmH2acJm9wW8Cv-25">
          <mxGeometry relative="1" as="geometry" />
        </mxCell>
        <mxCell id="AvqMwJsmH2acJm9wW8Cv-46" style="edgeStyle=orthogonalEdgeStyle;rounded=0;orthogonalLoop=1;jettySize=auto;html=1;exitX=0.5;exitY=1;exitDx=0;exitDy=0;" edge="1" parent="1" source="AvqMwJsmH2acJm9wW8Cv-26" target="AvqMwJsmH2acJm9wW8Cv-5">
          <mxGeometry relative="1" as="geometry" />
        </mxCell>
        <mxCell id="AvqMwJsmH2acJm9wW8Cv-47" style="edgeStyle=orthogonalEdgeStyle;rounded=0;orthogonalLoop=1;jettySize=auto;html=1;exitX=0.5;exitY=1;exitDx=0;exitDy=0;" edge="1" parent="1" source="AvqMwJsmH2acJm9wW8Cv-26" target="AvqMwJsmH2acJm9wW8Cv-7">
          <mxGeometry relative="1" as="geometry" />
        </mxCell>
        <mxCell id="AvqMwJsmH2acJm9wW8Cv-48" style="edgeStyle=orthogonalEdgeStyle;rounded=0;orthogonalLoop=1;jettySize=auto;html=1;exitX=0.5;exitY=1;exitDx=0;exitDy=0;" edge="1" parent="1" source="AvqMwJsmH2acJm9wW8Cv-26" target="AvqMwJsmH2acJm9wW8Cv-8">
          <mxGeometry relative="1" as="geometry" />
        </mxCell>
        <mxCell id="AvqMwJsmH2acJm9wW8Cv-49" style="edgeStyle=orthogonalEdgeStyle;rounded=0;orthogonalLoop=1;jettySize=auto;html=1;exitX=0.5;exitY=1;exitDx=0;exitDy=0;" edge="1" parent="1" source="AvqMwJsmH2acJm9wW8Cv-26" target="AvqMwJsmH2acJm9wW8Cv-9">
          <mxGeometry relative="1" as="geometry" />
        </mxCell>
        <mxCell id="AvqMwJsmH2acJm9wW8Cv-93" style="edgeStyle=orthogonalEdgeStyle;rounded=0;orthogonalLoop=1;jettySize=auto;html=1;exitX=1;exitY=0.5;exitDx=0;exitDy=0;entryX=0;entryY=0.5;entryDx=0;entryDy=0;" edge="1" parent="1" source="AvqMwJsmH2acJm9wW8Cv-26" target="AvqMwJsmH2acJm9wW8Cv-43">
          <mxGeometry relative="1" as="geometry" />
        </mxCell>
        <mxCell id="AvqMwJsmH2acJm9wW8Cv-26" value="" style="image;html=1;image=img/lib/clip_art/networking/Switch_128x128.png" vertex="1" parent="1">
          <mxGeometry x="380" y="490" width="80" height="80" as="geometry" />
        </mxCell>
        <mxCell id="AvqMwJsmH2acJm9wW8Cv-33" style="edgeStyle=orthogonalEdgeStyle;rounded=0;orthogonalLoop=1;jettySize=auto;html=1;exitX=0;exitY=0.5;exitDx=0;exitDy=0;entryX=0.5;entryY=1;entryDx=0;entryDy=0;entryPerimeter=0;" edge="1" parent="1" source="AvqMwJsmH2acJm9wW8Cv-26" target="AvqMwJsmH2acJm9wW8Cv-23">
          <mxGeometry relative="1" as="geometry" />
        </mxCell>
        <mxCell id="AvqMwJsmH2acJm9wW8Cv-44" style="edgeStyle=orthogonalEdgeStyle;rounded=0;orthogonalLoop=1;jettySize=auto;html=1;exitX=0;exitY=0.75;exitDx=0;exitDy=0;" edge="1" parent="1" source="AvqMwJsmH2acJm9wW8Cv-35" target="AvqMwJsmH2acJm9wW8Cv-26">
          <mxGeometry relative="1" as="geometry" />
        </mxCell>
        <mxCell id="AvqMwJsmH2acJm9wW8Cv-35" value="" style="image;html=1;image=img/lib/clip_art/computers/Server_Tower_128x128.png" vertex="1" parent="1">
          <mxGeometry x="414" y="270" width="70" height="80" as="geometry" />
        </mxCell>
        <mxCell id="AvqMwJsmH2acJm9wW8Cv-39" style="edgeStyle=orthogonalEdgeStyle;rounded=0;orthogonalLoop=1;jettySize=auto;html=1;exitX=1;exitY=0.5;exitDx=0;exitDy=0;" edge="1" parent="1" source="AvqMwJsmH2acJm9wW8Cv-38" target="AvqMwJsmH2acJm9wW8Cv-35">
          <mxGeometry relative="1" as="geometry" />
        </mxCell>
        <mxCell id="AvqMwJsmH2acJm9wW8Cv-38" value="" style="image;html=1;image=img/lib/clip_art/networking/Modem_128x128.png" vertex="1" parent="1">
          <mxGeometry x="233" y="210" width="80" height="80" as="geometry" />
        </mxCell>
        <mxCell id="AvqMwJsmH2acJm9wW8Cv-41" style="edgeStyle=orthogonalEdgeStyle;rounded=0;orthogonalLoop=1;jettySize=auto;html=1;exitX=1;exitY=0.5;exitDx=0;exitDy=0;entryX=0;entryY=0.5;entryDx=0;entryDy=0;" edge="1" parent="1" source="AvqMwJsmH2acJm9wW8Cv-40" target="AvqMwJsmH2acJm9wW8Cv-38">
          <mxGeometry relative="1" as="geometry" />
        </mxCell>
        <mxCell id="AvqMwJsmH2acJm9wW8Cv-40" value="" style="image;aspect=fixed;perimeter=ellipsePerimeter;html=1;align=center;shadow=0;dashed=0;spacingTop=3;image=img/lib/active_directory/internet_cloud.svg;" vertex="1" parent="1">
          <mxGeometry x="50" y="150" width="80" height="50.4" as="geometry" />
        </mxCell>
        <mxCell id="AvqMwJsmH2acJm9wW8Cv-43" value="" style="image;html=1;image=img/lib/clip_art/networking/Print_Server_128x128.png" vertex="1" parent="1">
          <mxGeometry x="690" y="490" width="80" height="80" as="geometry" />
        </mxCell>
        <mxCell id="AvqMwJsmH2acJm9wW8Cv-65" value="" style="sketch=0;pointerEvents=1;shadow=0;dashed=0;html=1;strokeColor=none;fillColor=#505050;labelPosition=center;verticalLabelPosition=bottom;verticalAlign=top;outlineConnect=0;align=center;shape=mxgraph.office.devices.workstation_pc;" vertex="1" parent="1">
          <mxGeometry x="1080" y="430" width="53" height="59" as="geometry" />
        </mxCell>
        <mxCell id="AvqMwJsmH2acJm9wW8Cv-66" value="" style="sketch=0;pointerEvents=1;shadow=0;dashed=0;html=1;strokeColor=none;fillColor=#505050;labelPosition=center;verticalLabelPosition=bottom;verticalAlign=top;outlineConnect=0;align=center;shape=mxgraph.office.devices.workstation_pc;" vertex="1" parent="1">
          <mxGeometry x="1370" y="430" width="53" height="59" as="geometry" />
        </mxCell>
        <mxCell id="AvqMwJsmH2acJm9wW8Cv-67" value="" style="sketch=0;pointerEvents=1;shadow=0;dashed=0;html=1;strokeColor=none;fillColor=#505050;labelPosition=center;verticalLabelPosition=bottom;verticalAlign=top;outlineConnect=0;align=center;shape=mxgraph.office.devices.workstation_pc;" vertex="1" parent="1">
          <mxGeometry x="1270" y="430" width="53" height="59" as="geometry" />
        </mxCell>
        <mxCell id="AvqMwJsmH2acJm9wW8Cv-68" value="" style="sketch=0;pointerEvents=1;shadow=0;dashed=0;html=1;strokeColor=none;fillColor=#505050;labelPosition=center;verticalLabelPosition=bottom;verticalAlign=top;outlineConnect=0;align=center;shape=mxgraph.office.devices.workstation_pc;" vertex="1" parent="1">
          <mxGeometry x="1173.5" y="430" width="53" height="59" as="geometry" />
        </mxCell>
        <mxCell id="AvqMwJsmH2acJm9wW8Cv-73" value="" style="sketch=0;pointerEvents=1;shadow=0;dashed=0;html=1;strokeColor=none;fillColor=#505050;labelPosition=center;verticalLabelPosition=bottom;verticalAlign=top;outlineConnect=0;align=center;shape=mxgraph.office.devices.workstation_pc;" vertex="1" parent="1">
          <mxGeometry x="1460" y="430" width="53" height="59" as="geometry" />
        </mxCell>
        <mxCell id="AvqMwJsmH2acJm9wW8Cv-75" value="" style="fontColor=#0066CC;verticalAlign=top;verticalLabelPosition=bottom;labelPosition=center;align=center;html=1;outlineConnect=0;fillColor=#CCCCCC;strokeColor=#6881B3;gradientColor=none;gradientDirection=north;strokeWidth=2;shape=mxgraph.networks.printer;" vertex="1" parent="1">
          <mxGeometry x="1173.5" y="660" width="80" height="80" as="geometry" />
        </mxCell>
        <mxCell id="AvqMwJsmH2acJm9wW8Cv-76" value="" style="fontColor=#0066CC;verticalAlign=top;verticalLabelPosition=bottom;labelPosition=center;align=center;html=1;outlineConnect=0;fillColor=#CCCCCC;strokeColor=#6881B3;gradientColor=none;gradientDirection=north;strokeWidth=2;shape=mxgraph.networks.printer;" vertex="1" parent="1">
          <mxGeometry x="1040" y="660" width="83" height="80.5" as="geometry" />
        </mxCell>
        <mxCell id="AvqMwJsmH2acJm9wW8Cv-89" value="" style="image;points=[];aspect=fixed;html=1;align=center;shadow=0;dashed=0;image=img/lib/allied_telesis/computer_and_terminals/Personal_Computer_with_Server.svg;" vertex="1" parent="1">
          <mxGeometry x="990" y="940" width="62.400000000000006" height="62.400000000000006" as="geometry" />
        </mxCell>
        <mxCell id="AvqMwJsmH2acJm9wW8Cv-90" value="" style="image;points=[];aspect=fixed;html=1;align=center;shadow=0;dashed=0;image=img/lib/allied_telesis/computer_and_terminals/Personal_Computer_with_Server.svg;" vertex="1" parent="1">
          <mxGeometry x="1360.6" y="940" width="62.400000000000006" height="62.400000000000006" as="geometry" />
        </mxCell>
        <mxCell id="AvqMwJsmH2acJm9wW8Cv-91" value="" style="image;points=[];aspect=fixed;html=1;align=center;shadow=0;dashed=0;image=img/lib/allied_telesis/computer_and_terminals/Personal_Computer_with_Server.svg;" vertex="1" parent="1">
          <mxGeometry x="1226.5" y="940" width="62.400000000000006" height="62.400000000000006" as="geometry" />
        </mxCell>
        <mxCell id="AvqMwJsmH2acJm9wW8Cv-92" value="" style="image;points=[];aspect=fixed;html=1;align=center;shadow=0;dashed=0;image=img/lib/allied_telesis/computer_and_terminals/Personal_Computer_with_Server.svg;" vertex="1" parent="1">
          <mxGeometry x="1106.4" y="947.6" width="62.400000000000006" height="62.400000000000006" as="geometry" />
        </mxCell>
        <mxCell id="AvqMwJsmH2acJm9wW8Cv-96" style="edgeStyle=orthogonalEdgeStyle;rounded=0;orthogonalLoop=1;jettySize=auto;html=1;exitX=1;exitY=0.5;exitDx=0;exitDy=0;" edge="1" parent="1" source="AvqMwJsmH2acJm9wW8Cv-94" target="AvqMwJsmH2acJm9wW8Cv-73">
          <mxGeometry relative="1" as="geometry" />
        </mxCell>
        <mxCell id="AvqMwJsmH2acJm9wW8Cv-97" style="edgeStyle=orthogonalEdgeStyle;rounded=0;orthogonalLoop=1;jettySize=auto;html=1;exitX=1;exitY=0.5;exitDx=0;exitDy=0;" edge="1" parent="1" source="AvqMwJsmH2acJm9wW8Cv-94" target="AvqMwJsmH2acJm9wW8Cv-66">
          <mxGeometry relative="1" as="geometry" />
        </mxCell>
        <mxCell id="AvqMwJsmH2acJm9wW8Cv-98" style="edgeStyle=orthogonalEdgeStyle;rounded=0;orthogonalLoop=1;jettySize=auto;html=1;exitX=1;exitY=0.5;exitDx=0;exitDy=0;" edge="1" parent="1" source="AvqMwJsmH2acJm9wW8Cv-94" target="AvqMwJsmH2acJm9wW8Cv-67">
          <mxGeometry relative="1" as="geometry" />
        </mxCell>
        <mxCell id="AvqMwJsmH2acJm9wW8Cv-99" style="edgeStyle=orthogonalEdgeStyle;rounded=0;orthogonalLoop=1;jettySize=auto;html=1;exitX=1;exitY=0.5;exitDx=0;exitDy=0;" edge="1" parent="1" source="AvqMwJsmH2acJm9wW8Cv-94" target="AvqMwJsmH2acJm9wW8Cv-68">
          <mxGeometry relative="1" as="geometry" />
        </mxCell>
        <mxCell id="AvqMwJsmH2acJm9wW8Cv-100" style="edgeStyle=orthogonalEdgeStyle;rounded=0;orthogonalLoop=1;jettySize=auto;html=1;exitX=1;exitY=0.5;exitDx=0;exitDy=0;" edge="1" parent="1" source="AvqMwJsmH2acJm9wW8Cv-94" target="AvqMwJsmH2acJm9wW8Cv-65">
          <mxGeometry relative="1" as="geometry" />
        </mxCell>
        <mxCell id="AvqMwJsmH2acJm9wW8Cv-102" style="edgeStyle=orthogonalEdgeStyle;rounded=0;orthogonalLoop=1;jettySize=auto;html=1;exitX=0.5;exitY=1;exitDx=0;exitDy=0;" edge="1" parent="1" source="AvqMwJsmH2acJm9wW8Cv-94" target="AvqMwJsmH2acJm9wW8Cv-76">
          <mxGeometry relative="1" as="geometry" />
        </mxCell>
        <mxCell id="AvqMwJsmH2acJm9wW8Cv-126" style="edgeStyle=orthogonalEdgeStyle;rounded=0;orthogonalLoop=1;jettySize=auto;html=1;exitX=0;exitY=0.5;exitDx=0;exitDy=0;entryX=1;entryY=0.5;entryDx=0;entryDy=0;" edge="1" parent="1" source="AvqMwJsmH2acJm9wW8Cv-94" target="AvqMwJsmH2acJm9wW8Cv-43">
          <mxGeometry relative="1" as="geometry" />
        </mxCell>
        <mxCell id="AvqMwJsmH2acJm9wW8Cv-94" value="" style="image;html=1;image=img/lib/clip_art/networking/Print_Server_128x128.png" vertex="1" parent="1">
          <mxGeometry x="950" y="530" width="80" height="80" as="geometry" />
        </mxCell>
        <mxCell id="AvqMwJsmH2acJm9wW8Cv-101" style="edgeStyle=orthogonalEdgeStyle;rounded=0;orthogonalLoop=1;jettySize=auto;html=1;exitX=0.5;exitY=1;exitDx=0;exitDy=0;entryX=0.5;entryY=0;entryDx=0;entryDy=0;entryPerimeter=0;" edge="1" parent="1" source="AvqMwJsmH2acJm9wW8Cv-94" target="AvqMwJsmH2acJm9wW8Cv-75">
          <mxGeometry relative="1" as="geometry" />
        </mxCell>
        <mxCell id="AvqMwJsmH2acJm9wW8Cv-125" style="edgeStyle=orthogonalEdgeStyle;rounded=0;orthogonalLoop=1;jettySize=auto;html=1;exitX=1;exitY=0.5;exitDx=0;exitDy=0;entryX=0.5;entryY=0;entryDx=0;entryDy=0;" edge="1" parent="1" source="AvqMwJsmH2acJm9wW8Cv-103" target="AvqMwJsmH2acJm9wW8Cv-94">
          <mxGeometry relative="1" as="geometry" />
        </mxCell>
        <mxCell id="AvqMwJsmH2acJm9wW8Cv-103" value="" style="image;html=1;image=img/lib/clip_art/computers/Server_Rack_128x128.png" vertex="1" parent="1">
          <mxGeometry x="827" y="390" width="80" height="80" as="geometry" />
        </mxCell>
        <mxCell id="AvqMwJsmH2acJm9wW8Cv-106" style="edgeStyle=orthogonalEdgeStyle;rounded=0;orthogonalLoop=1;jettySize=auto;html=1;exitX=1;exitY=0.5;exitDx=0;exitDy=0;" edge="1" parent="1" target="AvqMwJsmH2acJm9wW8Cv-90">
          <mxGeometry relative="1" as="geometry">
            <mxPoint x="907" y="864.0000000000002" as="sourcePoint" />
          </mxGeometry>
        </mxCell>
        <mxCell id="AvqMwJsmH2acJm9wW8Cv-107" style="edgeStyle=orthogonalEdgeStyle;rounded=0;orthogonalLoop=1;jettySize=auto;html=1;exitX=1;exitY=0.5;exitDx=0;exitDy=0;" edge="1" parent="1" target="AvqMwJsmH2acJm9wW8Cv-91">
          <mxGeometry relative="1" as="geometry">
            <mxPoint x="907" y="864.0000000000002" as="sourcePoint" />
          </mxGeometry>
        </mxCell>
        <mxCell id="AvqMwJsmH2acJm9wW8Cv-108" style="edgeStyle=orthogonalEdgeStyle;rounded=0;orthogonalLoop=1;jettySize=auto;html=1;exitX=1;exitY=0.5;exitDx=0;exitDy=0;" edge="1" parent="1" target="AvqMwJsmH2acJm9wW8Cv-92">
          <mxGeometry relative="1" as="geometry">
            <mxPoint x="907" y="864.0000000000002" as="sourcePoint" />
          </mxGeometry>
        </mxCell>
        <mxCell id="AvqMwJsmH2acJm9wW8Cv-109" style="edgeStyle=orthogonalEdgeStyle;rounded=0;orthogonalLoop=1;jettySize=auto;html=1;exitX=1;exitY=0.5;exitDx=0;exitDy=0;" edge="1" parent="1" target="AvqMwJsmH2acJm9wW8Cv-89">
          <mxGeometry relative="1" as="geometry">
            <mxPoint x="907" y="864.0000000000002" as="sourcePoint" />
          </mxGeometry>
        </mxCell>
        <mxCell id="AvqMwJsmH2acJm9wW8Cv-122" style="edgeStyle=orthogonalEdgeStyle;rounded=0;orthogonalLoop=1;jettySize=auto;html=1;exitX=0;exitY=0.5;exitDx=0;exitDy=0;" edge="1" parent="1" source="AvqMwJsmH2acJm9wW8Cv-110" target="AvqMwJsmH2acJm9wW8Cv-113">
          <mxGeometry relative="1" as="geometry" />
        </mxCell>
        <mxCell id="AvqMwJsmH2acJm9wW8Cv-123" style="edgeStyle=orthogonalEdgeStyle;rounded=0;orthogonalLoop=1;jettySize=auto;html=1;exitX=0;exitY=0.5;exitDx=0;exitDy=0;entryX=0.5;entryY=0;entryDx=0;entryDy=0;" edge="1" parent="1" source="AvqMwJsmH2acJm9wW8Cv-110" target="AvqMwJsmH2acJm9wW8Cv-114">
          <mxGeometry relative="1" as="geometry" />
        </mxCell>
        <mxCell id="AvqMwJsmH2acJm9wW8Cv-124" style="edgeStyle=orthogonalEdgeStyle;rounded=0;orthogonalLoop=1;jettySize=auto;html=1;exitX=0;exitY=0.5;exitDx=0;exitDy=0;entryX=0.5;entryY=0;entryDx=0;entryDy=0;" edge="1" parent="1" source="AvqMwJsmH2acJm9wW8Cv-110" target="AvqMwJsmH2acJm9wW8Cv-115">
          <mxGeometry relative="1" as="geometry" />
        </mxCell>
        <mxCell id="AvqMwJsmH2acJm9wW8Cv-128" style="edgeStyle=orthogonalEdgeStyle;rounded=0;orthogonalLoop=1;jettySize=auto;html=1;exitX=0.25;exitY=0;exitDx=0;exitDy=0;" edge="1" parent="1" source="AvqMwJsmH2acJm9wW8Cv-110" target="AvqMwJsmH2acJm9wW8Cv-43">
          <mxGeometry relative="1" as="geometry" />
        </mxCell>
        <mxCell id="AvqMwJsmH2acJm9wW8Cv-110" value="" style="image;html=1;image=img/lib/clip_art/networking/Print_Server_128x128.png" vertex="1" parent="1">
          <mxGeometry x="827" y="840" width="80" height="80" as="geometry" />
        </mxCell>
        <mxCell id="AvqMwJsmH2acJm9wW8Cv-132" style="edgeStyle=orthogonalEdgeStyle;rounded=0;orthogonalLoop=1;jettySize=auto;html=1;exitX=0.5;exitY=1;exitDx=0;exitDy=0;" edge="1" parent="1" source="AvqMwJsmH2acJm9wW8Cv-111" target="AvqMwJsmH2acJm9wW8Cv-110">
          <mxGeometry relative="1" as="geometry" />
        </mxCell>
        <mxCell id="AvqMwJsmH2acJm9wW8Cv-111" value="" style="shape=image;html=1;verticalAlign=top;verticalLabelPosition=bottom;labelBackgroundColor=#ffffff;imageAspect=0;aspect=fixed;image=https://cdn4.iconfinder.com/data/icons/ios-web-user-interface-multi-circle-flat-vol-2/512/Archive_archives_files_hosting_database_server_storage-128.png" vertex="1" parent="1">
          <mxGeometry x="907" y="701" width="100" height="100" as="geometry" />
        </mxCell>
        <mxCell id="AvqMwJsmH2acJm9wW8Cv-113" value="" style="image;html=1;image=img/lib/clip_art/computers/Netbook_128x128.png" vertex="1" parent="1">
          <mxGeometry x="460" y="938.8" width="80" height="80" as="geometry" />
        </mxCell>
        <mxCell id="AvqMwJsmH2acJm9wW8Cv-114" value="" style="image;html=1;image=img/lib/clip_art/computers/Netbook_128x128.png" vertex="1" parent="1">
          <mxGeometry x="570" y="940" width="80" height="80" as="geometry" />
        </mxCell>
        <mxCell id="AvqMwJsmH2acJm9wW8Cv-115" value="" style="image;html=1;image=img/lib/clip_art/computers/Netbook_128x128.png" vertex="1" parent="1">
          <mxGeometry x="670" y="940" width="80" height="80" as="geometry" />
        </mxCell>
        <mxCell id="AvqMwJsmH2acJm9wW8Cv-131" style="edgeStyle=orthogonalEdgeStyle;rounded=0;orthogonalLoop=1;jettySize=auto;html=1;entryX=0.5;entryY=1;entryDx=0;entryDy=0;" edge="1" parent="1" source="AvqMwJsmH2acJm9wW8Cv-130" target="AvqMwJsmH2acJm9wW8Cv-110">
          <mxGeometry relative="1" as="geometry" />
        </mxCell>
        <mxCell id="AvqMwJsmH2acJm9wW8Cv-130" value="" style="fontColor=#0066CC;verticalAlign=top;verticalLabelPosition=bottom;labelPosition=center;align=center;html=1;outlineConnect=0;fillColor=#CCCCCC;strokeColor=#6881B3;gradientColor=none;gradientDirection=north;strokeWidth=2;shape=mxgraph.networks.printer;" vertex="1" parent="1">
          <mxGeometry x="825.5" y="1010" width="83" height="80.5" as="geometry" />
        </mxCell>
      </root>
    </mxGraphModel>
  </diagram>
</mxfile>
